<?xml version="1.0" encoding="UTF-8"?>
<svg version="1.1" xmlns="http://www.w3.org/2000/svg" width="225" height="225">
<path d="M0 0 C74.25 0 148.5 0 225 0 C225 74.25 225 148.5 225 225 C150.75 225 76.5 225 0 225 C0 150.75 0 76.5 0 0 Z " fill="#FA9000" transform="translate(0,0)"/>
<path d="M0 0 C0.99 0.33 1.98 0.66 3 1 C2.01 1.33 1.02 1.66 0 2 C-2.17105211 7.80630215 -1.67134496 15.11573305 0.72265625 20.7421875 C3.83969582 26.25181707 8.04419301 31.07808008 12 36 C55.51724278 90.54868903 55.51724278 90.54868903 55.25 121.4375 C55.26160156 122.77264648 55.26160156 122.77264648 55.2734375 124.13476562 C55.24353019 134.37054374 53.51364582 143.90768164 46.5625 151.75 C45.716875 152.4925 44.87125 153.235 44 154 C43.236875 154.70125 42.47375 155.4025 41.6875 156.125 C33.96964958 161.50954681 26.20506228 161.84682174 17 161 C14.07421875 159.98046875 14.07421875 159.98046875 12 159 C11.875 151.25 11.875 151.25 13 149 C13.92941406 149.03480469 14.85882813 149.06960937 15.81640625 149.10546875 C26.49232016 149.33924789 32.24212793 148.27488247 40.20703125 140.95703125 C42.9696789 137.94159231 44.55176923 134.79588907 46 131 C46.4125 129.96875 46.825 128.9375 47.25 127.875 C51.27053057 107.10225875 41.59639727 90.31311985 30.41845703 73.64111328 C23.50425841 63.60804421 15.98546092 54.05637075 8.29980469 44.60839844 C5.47755242 41.1160998 2.7384916 37.55811056 0 34 C-1.58324757 37.16649513 -1.64374236 40.57458194 -1 44 C1.5742118 48.42907111 4.72286004 51.99408058 8.25 55.6875 C18.47578246 66.63280476 26.13896328 76.71659825 27 92 C29.31 90.02 31.62 88.04 34 86 C37.83690017 97.17705702 40.75962039 108.12211247 35.4375 119.375 C33.03258917 123.6767419 30.42411092 127.05650813 26.7890625 130.36328125 C24.86627697 132.12233614 23.15678435 133.97963654 21.4375 135.9375 C20.92058594 136.52402344 20.40367187 137.11054688 19.87109375 137.71484375 C19.25363281 138.46894531 18.63617188 139.22304687 18 140 C17.51305664 140.49193848 17.02611328 140.98387695 16.52441406 141.49072266 C10.80677777 147.87744405 10.59045677 155.32852975 9.875 163.5 C8.28443589 180.65966263 8.28443589 180.65966263 4 187 C-0.27949678 189.5181504 -4.13521551 189.6633797 -9 189 C-16.8600709 185.22716597 -22.06954835 177.54646717 -26 170 C-26.92619141 170.10441406 -26.92619141 170.10441406 -27.87109375 170.2109375 C-34.14898436 170.61226384 -37.98170231 169.62684271 -43.02734375 165.8359375 C-50.76113211 158.63815428 -53.27703934 148.74145753 -54 138.5625 C-54.35335895 133.61145925 -54.83055661 129.13598218 -56.5234375 124.4453125 C-59.7021072 115.55454619 -59.71527275 104.84711432 -55.89794922 96.15209961 C-48.72277453 81.9519646 -35.68255164 74.43695747 -22.375 66.6875 C-15.88258941 62.83296768 -12.60817175 59.00088207 -10 52 C-11.093125 52.20625 -12.18625 52.4125 -13.3125 52.625 C-17 53 -17 53 -20 51 C-20.43132515 46.94554358 -20.30019361 45.45029042 -18 42 C-14.625 41.4375 -14.625 41.4375 -11 42 C-6.19226957 47.56684576 -5.80312843 52.58821323 -5.75 59.6875 C-5.729375 60.35716797 -5.70875 61.02683594 -5.6875 61.71679688 C-5.60002381 73.16524291 -11.82116241 83.48450639 -16.52929688 93.61132812 C-20.15548568 101.58531278 -22.87524102 109.50288577 -25 118 C-25.22534424 118.85408447 -25.45068848 119.70816895 -25.68286133 120.58813477 C-27.40315607 127.88605909 -27.22488924 135.16404252 -27.125 142.625 C-27.11597656 143.91535156 -27.10695313 145.20570313 -27.09765625 146.53515625 C-27.0742848 149.69030249 -27.04152091 152.84504926 -27 156 C-27.66 156.33 -28.32 156.66 -29 157 C-35.33910878 132.83531732 -29.99359307 109.15990866 -20 87 C-19.18202014 85.16288129 -18.36432463 83.32563595 -17.546875 81.48828125 C-15.38577321 76.64913638 -13.20121102 71.82102038 -11 67 C-11.33 66.67 -11.66 66.34 -12 66 C-12.63164063 66.69222656 -13.26328125 67.38445312 -13.9140625 68.09765625 C-17.6293142 71.81160068 -22.01079854 74.54942551 -26.375 77.4375 C-38.70506284 85.61579949 -48.6351668 93.56002488 -52.578125 108.5625 C-53.24837189 112.43503756 -53.18975426 116.07841203 -53 120 C-52.195625 119.195625 -51.39125 118.39125 -50.5625 117.5625 C-47 114 -47 114 -44.75 113.625 C-40.72691939 114.1736019 -39.53491107 115.88010946 -37 119 C-32.85773499 124.70233885 -32.53437 130.1239654 -32.46875 137.046875 C-33.1132347 140.6294517 -34.14081161 141.81142125 -37 144 C-40.13184156 144.61275161 -42.00667054 144.65243685 -44.71875 142.87109375 C-46.20077734 141.64422678 -47.60679031 140.32686637 -49 139 C-48.52281936 146.51559516 -47.42624148 153.67165113 -41.8125 159.125 C-36.64083796 160.73396152 -32.01028991 159.9828084 -27.1875 157.625 C-21.29948537 150.55938245 -20.30745261 141.1169814 -19.03857422 132.28271484 C-18.18190303 126.41624073 -18.18190303 126.41624073 -16.90234375 123.48828125 C-15.5873995 119.86222285 -16.01050687 116.35103395 -16.1875 112.5625 C-16.38058029 103.79328931 -14.50895853 97.06877703 -11 89 C-10.47406227 87.69605765 -9.95336885 86.38998977 -9.4375 85.08203125 C-5.59890483 75.35647475 -5.59890483 75.35647475 -3.953125 71.62890625 C-1.35026209 65.5269116 -0.79983234 59.5404946 -2.9375 53.234375 C-3.30875 52.31140625 -3.68 51.3884375 -4.0625 50.4375 C-6.1137524 45.32024137 -6.49771565 41.32638314 -5 36 C-4.47019531 34.97326172 -4.47019531 34.97326172 -3.9296875 33.92578125 C-2.5347674 31.0363039 -3.26377948 29.06758549 -4 26 C-4.5259375 24.6078125 -4.5259375 24.6078125 -5.0625 23.1875 C-6.97289675 16.69215105 -6.47213759 10.30395086 -4 4 C-1.875 1.5625 -1.875 1.5625 0 0 Z " fill="#FA9207" transform="translate(114,18)"/>
<path d="M0 0 C0.99 0.33 1.98 0.66 3 1 C2.01 1.33 1.02 1.66 0 2 C-2.17105211 7.80630215 -1.67134496 15.11573305 0.72265625 20.7421875 C3.83969582 26.25181707 8.04419301 31.07808008 12 36 C55.51724278 90.54868903 55.51724278 90.54868903 55.25 121.4375 C55.26160156 122.77264648 55.26160156 122.77264648 55.2734375 124.13476562 C55.24353019 134.37054374 53.51364582 143.90768164 46.5625 151.75 C45.716875 152.4925 44.87125 153.235 44 154 C43.236875 154.70125 42.47375 155.4025 41.6875 156.125 C33.96964958 161.50954681 26.20506228 161.84682174 17 161 C14.07421875 159.98046875 14.07421875 159.98046875 12 159 C11.875 151.25 11.875 151.25 13 149 C13.92941406 149.03480469 14.85882813 149.06960937 15.81640625 149.10546875 C26.49232016 149.33924789 32.24212793 148.27488247 40.20703125 140.95703125 C42.9696789 137.94159231 44.55176923 134.79588907 46 131 C46.4125 129.96875 46.825 128.9375 47.25 127.875 C51.27053057 107.10225875 41.59639727 90.31311985 30.41845703 73.64111328 C23.50425841 63.60804421 15.98546092 54.05637075 8.29980469 44.60839844 C5.47755242 41.1160998 2.7384916 37.55811056 0 34 C-1.58324757 37.16649513 -1.64374236 40.57458194 -1 44 C1.5742118 48.42907111 4.72286004 51.99408058 8.25 55.6875 C18.47578246 66.63280476 26.13896328 76.71659825 27 92 C29.31 90.02 31.62 88.04 34 86 C37.83690017 97.17705702 40.75962039 108.12211247 35.4375 119.375 C33.03258917 123.6767419 30.42411092 127.05650813 26.7890625 130.36328125 C24.86627697 132.12233614 23.15678435 133.97963654 21.4375 135.9375 C20.92058594 136.52402344 20.40367187 137.11054688 19.87109375 137.71484375 C19.25363281 138.46894531 18.63617188 139.22304687 18 140 C17.26958496 140.73790771 17.26958496 140.73790771 16.52441406 141.49072266 C10.80677777 147.87744405 10.59045677 155.32852975 9.875 163.5 C8.28443589 180.65966263 8.28443589 180.65966263 4 187 C-0.27949678 189.5181504 -4.13521551 189.6633797 -9 189 C-15.63900783 185.81327624 -21.92928609 178.71718668 -25 172 C-24.67 171.01 -24.34 170.02 -24 169 C-23.01 169 -22.02 169 -21 169 C-19.71875 170.6796875 -19.71875 170.6796875 -18.5 172.875 C-16.78740943 175.93790236 -16.02993057 176.98004629 -13 179 C-9.10375714 179.42504468 -6.90871785 179.66311843 -3.6875 177.3125 C-0.74136408 173.27520263 0.26027057 169.2607851 0.9296875 164.359375 C1.08566406 163.28816406 1.24164063 162.21695313 1.40234375 161.11328125 C1.71514425 158.88748598 2.02251955 156.66092092 2.32421875 154.43359375 C3.78678952 144.50475966 6.24672485 137.21090148 13.25 129.9375 C13.73162598 129.42928711 14.21325195 128.92107422 14.70947266 128.39746094 C17.52797902 125.44135231 20.43990014 122.59023921 23.375 119.75 C29.06941061 114.11393376 31.93810114 108.73676462 34 101 C31.74736585 102.74669493 29.4978721 104.49719497 27.25 106.25 C26.61578125 106.74113281 25.9815625 107.23226562 25.328125 107.73828125 C22.01312568 110.32812447 18.89407236 112.93052932 16 116 C14.22294921 111.44630735 13.34999925 107.87500562 14 103 C14.94665403 101.34335545 15.95303249 99.72014389 17 98.125 C20.1436357 93.22746827 21.03626696 89.73185163 20 84 C17.44009628 74.78434663 9.67072668 67.52929785 3 61 C2.91363281 62.00417969 2.82726562 63.00835937 2.73828125 64.04296875 C1.62366321 75.41850589 -1.3197492 84.93122506 -6.625 95.125 C-10.51230703 102.65512934 -12.20872025 110.61243467 -13 119 C-14.485 119.495 -14.485 119.495 -16 120 C-16.6275317 108.48130708 -15.62994651 99.75497991 -11 89 C-10.4746403 87.69452076 -9.95392224 86.38716546 -9.4375 85.078125 C-5.58217318 75.31857881 -5.58217318 75.31857881 -3.953125 71.62890625 C-1.35026209 65.5269116 -0.79983234 59.5404946 -2.9375 53.234375 C-3.30875 52.31140625 -3.68 51.3884375 -4.0625 50.4375 C-6.1137524 45.32024137 -6.49771565 41.32638314 -5 36 C-4.47019531 34.97326172 -4.47019531 34.97326172 -3.9296875 33.92578125 C-2.5347674 31.0363039 -3.26377948 29.06758549 -4 26 C-4.5259375 24.6078125 -4.5259375 24.6078125 -5.0625 23.1875 C-6.97289675 16.69215105 -6.47213759 10.30395086 -4 4 C-1.875 1.5625 -1.875 1.5625 0 0 Z " fill="#FEF9F2" transform="translate(114,18)"/>
<path d="M0 0 C3.375 -0.5625 3.375 -0.5625 7 0 C11.80773043 5.56684576 12.19687157 10.58821323 12.25 17.6875 C12.270625 18.35716797 12.29125 19.02683594 12.3125 19.71679688 C12.39997619 31.16524291 6.17883759 41.48450639 1.47070312 51.61132812 C-2.15548568 59.58531278 -4.87524102 67.50288577 -7 76 C-7.22534424 76.85408447 -7.45068848 77.70816895 -7.68286133 78.58813477 C-9.40315607 85.88605909 -9.22488924 93.16404252 -9.125 100.625 C-9.11597656 101.91535156 -9.10695313 103.20570313 -9.09765625 104.53515625 C-9.0742848 107.69030249 -9.04152091 110.84504926 -9 114 C-9.99 114.495 -9.99 114.495 -11 115 C-17.33910878 90.83531732 -11.99359307 67.15990866 -2 45 C-1.18202014 43.16288129 -0.36432463 41.32563595 0.453125 39.48828125 C2.61422679 34.64913638 4.79878898 29.82102038 7 25 C6.67 24.67 6.34 24.34 6 24 C5.36835937 24.69222656 4.73671875 25.38445312 4.0859375 26.09765625 C0.3706858 29.81160068 -4.01079854 32.54942551 -8.375 35.4375 C-20.70506284 43.61579949 -30.6351668 51.56002488 -34.578125 66.5625 C-35.24837189 70.43503756 -35.18975426 74.07841203 -35 78 C-34.195625 77.195625 -33.39125 76.39125 -32.5625 75.5625 C-29 72 -29 72 -26.75 71.625 C-22.72691939 72.1736019 -21.53491107 73.88010946 -19 77 C-14.85773499 82.70233885 -14.53437 88.1239654 -14.46875 95.046875 C-15.1132347 98.6294517 -16.14081161 99.81142125 -19 102 C-22.13184156 102.61275161 -24.00667054 102.65243685 -26.71875 100.87109375 C-28.20077734 99.64422678 -29.60679031 98.32686637 -31 97 C-30.52281936 104.51559516 -29.42624148 111.67165113 -23.8125 117.125 C-18.64083796 118.73396152 -14.01028991 117.9828084 -9.1875 115.625 C-3.28074324 108.53689189 -2.29789541 99.05759408 -1.03857422 90.19482422 C-0.1499772 84.08323666 0.89149419 80.63331448 5.8125 76.625 C9.32619556 73.66171941 12.17554296 70.61883558 15 67 C17.82811212 71.24216817 17.76999875 75.01907061 17 80 C14.98241819 82.62897024 12.83088258 84.35031502 10.23901367 86.37695312 C4.60254264 91.30385903 3.87411585 95.54266198 3.375 102.8125 C2.41062177 112.24663489 0.9958214 119.20501432 -5.1875 126.625 C-9.52777938 128.74691436 -13.27373479 128.9129487 -18 128 C-26.34012514 124.38989844 -30.12384217 118.38236867 -33.5703125 110.33203125 C-35.23972354 105.78828411 -35.65894337 101.36442231 -36 96.5625 C-36.35335895 91.61145925 -36.83055661 87.13598218 -38.5234375 82.4453125 C-41.7021072 73.55454619 -41.71527275 62.84711432 -37.89794922 54.15209961 C-30.72277453 39.9519646 -17.68255164 32.43695747 -4.375 24.6875 C2.11741059 20.83296768 5.39182825 17.00088207 8 10 C6.906875 10.20625 5.81375 10.4125 4.6875 10.625 C1 11 1 11 -2 9 C-2.43132515 4.94554358 -2.30019361 3.45029042 0 0 Z " fill="#FEF8EF" transform="translate(96,60)"/>
<path d="M0 0 C2.99593621 2.86248693 5.48528375 5.85041493 7.9375 9.1875 C10.63355051 12.83248934 13.34353555 16.45877503 16.125 20.0390625 C23.16513052 29.1077052 29.88701424 38.27792014 36 48 C36.36996094 48.58346191 36.73992187 49.16692383 37.12109375 49.76806641 C45.80604608 63.62612869 51.49620243 77.58291196 48.40625 94.19140625 C46.01466353 102.8609072 40.92860174 109.66616924 33.46484375 114.71484375 C29.18532488 116.94616183 25.68437925 117.13681666 20.875 117.125 C19.29332031 117.12886719 19.29332031 117.12886719 17.6796875 117.1328125 C15 117 15 117 13 116 C12.67 119.3 12.34 122.6 12 126 C10 124 10 124 9.8125 122.1171875 C10.56622186 113.10393021 16.06668793 107.78096829 22.20263672 101.57373047 C30.28029393 93.37757462 37.14429834 85.60382357 37.5625 73.5625 C37.24572994 66.8534726 35.77609738 60.45949702 34 54 C31.36 55.98 28.72 57.96 26 60 C25.9690625 57.710625 25.9690625 57.710625 25.9375 55.375 C24.76428046 43.1891597 17.97532968 34.27336871 9.73046875 25.8359375 C-2.05314239 13.59716541 -2.05314239 13.59716541 -2.23046875 4.97265625 C-2 3 -2 3 0 0 Z " fill="#FA9208" transform="translate(114,51)"/>
<path d="M0 0 C1.16422663 3.49267988 0.87937798 3.89001726 -0.625 7.0703125 C-0.99858643 7.87549316 -1.37217285 8.68067383 -1.75708008 9.51025391 C-2.16724365 10.37312012 -2.57740723 11.23598633 -3 12.125 C-3.83890998 13.94714855 -4.67612499 15.77007833 -5.51171875 17.59375 C-5.93243652 18.50640625 -6.3531543 19.4190625 -6.78662109 20.359375 C-17.00236043 42.59145481 -24.38843343 67.58861595 -17 92 C-16.01 91.01 -16.01 91.01 -15 90 C-15 93 -15 93 -16.4375 94.625 C-20.21084226 96.64972024 -23.73016496 97.2153482 -28 97 C-32.58229636 95.09791472 -34.31496327 92.81067863 -36.3125 88.4375 C-38.32554635 83.40063719 -39.10326645 79.47312211 -39 74 C-38.56429687 74.3609375 -38.12859375 74.721875 -37.6796875 75.09375 C-34.62694292 77.47251201 -32.64000306 78.90153799 -28.75 79.5 C-25.59890038 78.9270728 -24.86831041 78.53939891 -23 76 C-21.69534645 68.24818347 -22.88718059 61.76256053 -26.61328125 54.92578125 C-28.50798805 52.29454054 -30.24330667 51.13581675 -33.4375 50.5625 C-36.22522891 50.77453506 -36.22522891 50.77453506 -38.1875 53.3125 C-39.46366677 55.20474728 -40.7339703 57.10095545 -42 59 C-44.82472472 50.52582584 -42.47710791 42.05561789 -38.6640625 34.2734375 C-32.22756963 23.1273157 -21.81329619 16.22539455 -11.1640625 9.48608398 C-7.30155545 7.01542927 -4.15391061 4.37462627 -1 1 C-0.67 0.67 -0.34 0.34 0 0 Z " fill="#FA9208" transform="translate(103,82)"/>
<path d="M0 0 C0.66 0.33 1.32 0.66 2 1 C1.319375 1.5775 0.63875 2.155 -0.0625 2.75 C-2.18754009 4.74233508 -2.18754009 4.74233508 -2.0625 6.875 C-0.09958818 10.80082363 2.59490045 14.06326696 6.25 16.5 C8.8932056 18.7656048 8.69204831 20.54029585 9 24 C8.78867461 27.48796583 8.31635804 30.9185825 7.8125 34.375 C7.69841797 35.2825 7.58433594 36.19 7.46679688 37.125 C6.64784473 42.89507907 5.39763692 48.1638323 2 53 C-1.7373856 55.4915904 -3.57331583 55.45793285 -8 55 C-11.83831337 52.64467134 -13.99401843 50.01196314 -16 46 C-16 45.34 -16 44.68 -16 44 C-17.98 44.495 -17.98 44.495 -20 45 C-20 44.34 -20 43.68 -20 43 C-19.236875 42.278125 -18.47375 41.55625 -17.6875 40.8125 C-12.5502764 35.43633577 -11.74070977 30.16709745 -11.1262207 23.01611328 C-9.86932053 8.55137873 -9.86932053 8.55137873 -4.3125 3.125 C-1.86328125 1.1953125 -1.86328125 1.1953125 0 0 Z " fill="#FA940D" transform="translate(109,143)"/>
<path d="M0 0 C4.21982243 1.5628972 6.21523874 4.58866745 9 8 C9.78375 8.433125 10.5675 8.86625 11.375 9.3125 C13 11 13 11 13.0234375 13.1796875 C12.77271494 15.47917159 12.43795909 17.72927732 12 20 C11.34 20 10.68 20 10 20 C8.16015625 17.98828125 8.16015625 17.98828125 6.0625 15.3125 C5.02802734 14.00732422 5.02802734 14.00732422 3.97265625 12.67578125 C-1.08986616 5.80879541 -1.08986616 5.80879541 -0.6875 2.1875 C-0.460625 1.465625 -0.23375 0.74375 0 0 Z " fill="#FEF9F1" transform="translate(104,150)"/>
<path d="M0 0 C3.4375 -0.4375 3.4375 -0.4375 7 0 C8.9375 1.625 8.9375 1.625 10 4 C10.1875 7.25 10.1875 7.25 10 10 C8.56465159 10.2226746 7.12654475 10.42761906 5.6875 10.625 C4.88699219 10.74101563 4.08648437 10.85703125 3.26171875 10.9765625 C1 11 1 11 -2 9 C-2.43132515 4.94554358 -2.30019361 3.45029042 0 0 Z " fill="#FEFAF5" transform="translate(96,60)"/>
<path d="M0 0 C1.875 1.1875 1.875 1.1875 3 3 C3.42822025 5.85480169 3.40659584 7.34492892 1.875 9.8125 C-0.87155972 11.55198782 -2.81846974 11.39769128 -6 11 C-7.875 9.8125 -7.875 9.8125 -9 8 C-9.42822025 5.14519831 -9.40659584 3.65507108 -7.875 1.1875 C-5.12844028 -0.55198782 -3.18153026 -0.39769128 0 0 Z " fill="#FEF8F0" transform="translate(95,70)"/>
<path d="M0 0 C4.67692308 1.47692308 4.67692308 1.47692308 6.3125 4.125 C6.539375 4.74375 6.76625 5.3625 7 6 C5.35 7.98 3.7 9.96 2 12 C-0.49361571 10.79618552 -2.68143083 9.54571278 -5 8 C-3.62845496 5.04590299 -2.01136276 2.55991624 0 0 Z " fill="#FEF7ED" transform="translate(104,182)"/>
<path d="M0 0 C2.46800047 1.15173355 4.04783565 2.04783565 6 4 C5.66306057 7.36939433 4.11180592 9.42910583 2 12 C-2.67692308 10.52307692 -2.67692308 10.52307692 -4.3125 7.875 C-4.539375 7.25625 -4.76625 6.6375 -5 6 C-3.35 4.02 -1.7 2.04 0 0 Z " fill="#FEF8EF" transform="translate(106,169)"/>
<path d="M0 0 C5.66366906 1.44604317 5.66366906 1.44604317 7.0625 3.75 C6.97236299 6.99493252 5.58184815 9.21594725 4 12 C-1.66366906 10.55395683 -1.66366906 10.55395683 -3.0625 8.25 C-2.97236299 5.00506748 -1.58184815 2.78405275 0 0 Z " fill="#FEF7EE" transform="translate(120,134)"/>
<path d="M0 0 C4.75 0.875 4.75 0.875 7 2 C6.5020163 5.73487777 6.12508244 7.81237635 4 11 C-0.75 10.125 -0.75 10.125 -3 9 C-2.5020163 5.26512223 -2.12508244 3.18762365 0 0 Z " fill="#FEF8F0" transform="translate(144,150)"/>
<path d="M0 0 C0.6875 2.3125 0.6875 2.3125 1 5 C-0.0625 6.8125 -0.0625 6.8125 -2 8 C-5.0625 8.375 -5.0625 8.375 -8 8 C-8.66 7.01 -9.32 6.02 -10 5 C-7.00915607 -0.3019506 -6.01775424 -1.42525758 0 0 Z " fill="#FA9208" transform="translate(75,144)"/>
<path d="M0 0 C0.33 0 0.66 0 1 0 C0.64064905 5.83585942 -0.59572505 8.30562483 -4.875 12.25 C-6.20144531 13.49523437 -6.20144531 13.49523437 -7.5546875 14.765625 C-8.36164063 15.50296875 -9.16859375 16.2403125 -10 17 C-11.00645835 17.99349966 -12.00988396 18.99021278 -13 20 C-13.41299178 16.59889121 -13.22969095 15.31410729 -11.171875 12.5 C-9.97304687 11.2625 -9.97304687 11.2625 -8.75 10 C-6.31097874 7.44938954 -3.96207095 4.95225714 -1.765625 2.1875 C-1.18296875 1.465625 -0.6003125 0.74375 0 0 Z " fill="#FEF1E1" transform="translate(127,101)"/>
<path d="M0 0 C-1.08210339 2.52490791 -2.03774814 4.03546037 -4.0625 5.9375 C-6.28970409 8.30839468 -6.64629437 9.81664932 -7 13 C-6.01 13 -5.02 13 -4 13 C-4 12.01 -4 11.02 -4 10 C-3.34 10 -2.68 10 -2 10 C-2.33 11.98 -2.66 13.96 -3 16 C-4.65614657 16.38218767 -6.32457024 16.71395102 -8 17 C-9 16 -9 16 -9.5 12.4375 C-9.48205928 7.47689101 -6.99299657 4.96370003 -3.7265625 1.46875 C-2 0 -2 0 0 0 Z " fill="#FEF0DD" transform="translate(83,107)"/>
<path d="M0 0 C2.97 0 5.94 0 9 0 C8.54663921 4.87362847 7.2910841 7.39042389 4 11 C2.68 10.67 1.36 10.34 0 10 C0.66 9.34 1.32 8.68 2 8 C2.38286803 4.26703674 2.14915785 3.22373677 0 0 Z " fill="#FA9B1F" transform="translate(95,70)"/>
<path d="M0 0 C0.66 0 1.32 0 2 0 C2.268125 0.804375 2.53625 1.60875 2.8125 2.4375 C3.204375 3.283125 3.59625 4.12875 4 5 C4.99 5.33 5.98 5.66 7 6 C7 5.34 7 4.68 7 4 C7.66 4 8.32 4 9 4 C9.33 5.98 9.66 7.96 10 10 C8.25 10.75 8.25 10.75 6 11 C1.92424971 8.1229998 1.09027733 4.72453508 0 0 Z " fill="#FEF2E2" transform="translate(128,184)"/>
<path d="M0 0 C0.99 0.33 1.98 0.66 3 1 C2.01 1.33 1.02 1.66 0 2 C-0.66 5.63 -1.32 9.26 -2 13 C-2.33 13 -2.66 13 -3 13 C-3 11.35 -3 9.7 -3 8 C-3.66 8 -4.32 8 -5 8 C-3.8141763 4.62496331 -2.72426311 2.35277269 0 0 Z " fill="#FDE6C9" transform="translate(114,18)"/>
<path d="M0 0 C-1.39332574 3.36720387 -2.9789286 4.9859524 -6 7 C-6 4 -6 4 -4.125 1.8125 C-2 0 -2 0 0 0 Z " fill="#FDDFB9" transform="translate(83,107)"/>
<path d="M0 0 C0.66 0 1.32 0 2 0 C2.268125 0.78375 2.53625 1.5675 2.8125 2.375 C3.84814432 5.28114923 3.84814432 5.28114923 7 7 C5.68 7.33 4.36 7.66 3 8 C0 2.25 0 2.25 0 0 Z " fill="#FDE6C9" transform="translate(128,184)"/>
</svg>
